ffprobe version n2.6.1 Copyright (c) 2007-2015 the FFmpeg developers
  built with gcc 4.8 (Ubuntu 4.8.2-19ubuntu1)
  configuration: --prefix=/opt/ffmpeg --extra-cflags=-I/opt/ffmpeg/include --extra-ldflags=-L/opt/ffmpeg/lib --extra-libs=-ldl --enable-gpl --enable-libass --enable-libfdk-aac --enable-libfreetype --enable-libmp3lame --enable-libtheora --enable-libvorbis --enable-libvpx --enable-libx264 --enable-libx265 --enable-nonfree
  libavutil      54. 20.100 / 54. 20.100
  libavcodec     56. 26.100 / 56. 26.100
  libavformat    56. 25.101 / 56. 25.101
  libavdevice    56.  4.100 / 56.  4.100
  libavfilter     5. 11.102 /  5. 11.102
  libswscale      3.  1.101 /  3.  1.101
  libswresample   1.  1.100 /  1.  1.100
  libpostproc    53.  3.100 / 53.  3.100
Input #0, asf, from 'Aula 01 - 13 de Junho de 2012 - jun 13 2012 08.38.45.wmv':
  Metadata:
    WMFSDKNeeded    : 0.0.0.0000
    DeviceConformanceTemplate: L2
    WMFSDKVersion   : 12.0.7601.17514
    IsVBR           : 1
    VBR Peak        : 224560
    Buffer Average  : 385434
    title           : Aula 01 - 13 de Junho de 2012
    comment         : Hora de início: 20:38:45 ‎13/‎06/‎2012; Duração: 02:01:00; Participantes: ALEXANDRE BORDIGNON, Daniel Pedro da Silva, leila
  Duration: 02:01:03.81, start: 0.000000, bitrate: 174 kb/s
    Stream #0:0(eng): Video: vc1 (Advanced) (WVC1 / 0x31435657), yuv420p, 1024x576, 155 kb/s, 10 fps, 10 tbr, 1k tbn, 1k tbc
    Stream #0:1(por): Audio: wmav2 (a[1][0][0] / 0x0161), 16000 Hz, 1 channels, fltp, 16 kb/s
